Coordinates
version=1
nRows=22
nColumns=24
inDegrees=yes

Units are S.I. units (second, meters, Newtons, ...)
Angles are in degrees.

endheader
time	pelvis_tilt	pelvis_list	pelvis_rotation	pelvis_tx	pelvis_ty	pelvis_tz	hip_flexion_r	hip_adduction_r	hip_rotation_r	knee_angle_r	ankle_angle_r	subtalar_angle_r	mtp_angle_r	hip_flexion_l	hip_adduction_l	hip_rotation_l	knee_angle_l	ankle_angle_l	subtalar_angle_l	mtp_angle_l	lumbar_extension	lumbar_bending	lumbar_rotation
      0.50400000	     -0.85819464	      4.59273651	      2.20146296	     -0.80584739	      0.99743430	      0.30060117	     26.18815468	     -5.26863249	     -5.73369902	     -5.11705572	     -1.84537333	     -7.57299977	     -1.08188416	    -11.55476120	      5.96144534	    -10.39376939	     -6.47395390	     12.35995067	     -3.50243314	     -0.61921438	    -11.76174129	     -5.16467159	     -0.40962327
      0.50816667	     -0.60672222	      4.45987419	      2.24455622	     -0.79990652	      0.99714788	      0.30088826	     25.79265882	     -5.10510899	     -5.85817946	     -5.31291760	     -2.06546811	     -7.60913560	     -1.58704309	    -11.98036479	      5.69621416	    -10.41686263	     -6.94631359	     12.74870518	     -3.02704297	     -1.03031726	    -12.00433694	     -4.95174530	     -0.50963109
      0.51233333	     -0.46230906	      4.40451989	      1.99847510	     -0.79394849	      0.99654766	      0.30183324	     25.61391271	     -4.86649777	     -5.54187198	     -5.65395403	     -2.19501920	     -7.72035877	     -8.17804273	    -12.30199992	      5.56282247	    -10.71379444	     -7.40614249	     13.08576331	     -2.61986836	     -7.26118833	    -12.09491851	     -4.89206137	     -0.24098110
      0.51650000	     -0.24044164	      4.26386936	      2.00563621	     -0.78795521	      0.99628564	      0.30218976	     25.26136737	     -4.67553562	     -5.62332317	     -5.93318338	     -2.48379137	     -7.88433110	     -8.09762884	    -12.67327751	      5.30071333	    -10.70565931	     -7.91001896	     13.23835587	     -2.44083180	     -7.34769618	    -12.29747514	     -4.66619299	     -0.28081573
      0.52066667	     -0.17500606	      4.21508510	      1.92762799	     -0.78197356	      0.99573253	      0.30266703	     25.16408443	     -4.55221699	     -5.62689968	     -6.38384425	     -2.67896180	     -7.91065695	     -8.08470432	    -12.86404749	      5.16914745	    -10.71954384	     -8.42785889	     13.25896955	     -2.49989008	     -7.36024836	    -12.30330754	     -4.57855475	     -0.26402683
      0.52483333	      0.16535212	      4.00721899	      1.81855954	     -0.77584597	      0.99573141	      0.30329143	     24.66906995	     -4.22758693	     -5.59504900	     -6.66329261	     -3.08299732	     -8.26192588	     -7.99909675	    -13.35575759	      4.84203622	    -10.86337534	     -8.94136504	     13.36404979	     -2.25543291	     -7.40121110	    -12.62900193	     -4.29538448	     -0.12676704
      0.52900000	      0.34419121	      3.88034024	      1.70271271	     -0.76976680	      0.99548220	      0.30391565	     24.40168371	     -3.99551035	     -5.54363136	     -7.05998051	     -3.40176585	     -8.45052840	     -7.89425725	    -13.62743948	      4.61006045	    -10.98248199	     -9.54858086	     13.37604963	     -2.12546355	     -7.42394656	    -12.76597586	     -4.10700904	     -0.04039460
      0.53316667	      0.46212325	      3.77082971	      1.59377778	     -0.76367641	      0.99519291	      0.30446810	     24.20984647	     -3.79498130	     -5.51812965	     -7.48884016	     -3.77370225	     -8.59217341	     -7.83809175	    -13.81703560	      4.41193987	    -11.01399898	    -10.17880259	     13.34775390	     -2.18299008	     -7.42208057	    -12.82873706	     -3.93673726	      0.02643844
      0.53733333	      0.69682200	      3.62509274	      1.47717945	     -0.75757542	      0.99515965	      0.30511349	     23.86726820	     -3.54330453	     -5.48132552	     -7.88593026	     -4.15948473	     -8.90262941	     -7.71398503	    -14.10517639	      4.15604720	    -11.11110136	    -10.84586905	     13.17940134	     -2.14586169	     -7.37728652	    -13.03643460	     -3.73703750	      0.12841104
      0.54150000	      0.83204917	      3.49659396	      1.36211334	     -0.75144322	      0.99503093	      0.30572364	     23.63623524	     -3.31983821	     -5.44661011	     -8.29527723	     -4.60180434	     -9.12808279	     -7.58685376	    -14.25597274	      3.92738842	    -11.17501033	    -11.57883041	     13.02885241	     -2.19098849	     -7.29715505	    -13.12190411	     -3.55248086	      0.21807929
      0.54566667	      0.99108295	      3.36058484	      1.22930900	     -0.74530676	      0.99498495	      0.30635272	     23.38340523	     -3.08591521	     -5.41182823	     -8.71456281	     -5.06944964	     -9.38620388	     -7.46511992	    -14.40820075	      3.69480511	    -11.24313801	    -12.34652959	     12.78448538	     -2.31869242	     -7.18979599	    -13.23557006	     -3.36242355	      0.31640310
      0.54983333	      1.15664146	      3.22825877	      1.09195598	     -0.73917474	      0.99502059	      0.30700777	     23.11159228	     -2.85489325	     -5.35050716	     -9.11251017	     -5.55635589	     -9.66040966	     -7.32053874	    -14.52873857	      3.46156981	    -11.33147111	    -13.18066156	     12.48404296	     -2.45736956	     -7.02345215	    -13.35797391	     -3.16635293	      0.42319527
      0.55400000	      1.29977075	      3.10223058	      0.94570298	     -0.73304070	      0.99507618	      0.30768179	     22.86507245	     -2.63195945	     -5.28112011	     -9.51436364	     -6.05018197	     -9.90826609	     -7.18072278	    -14.59160138	      3.23619606	    -11.41527452	    -14.07324460	     12.14196578	     -2.61772442	     -6.82853784	    -13.45426705	     -2.98811341	      0.53122430
      0.55816667	      1.40243757	      2.97156545	      0.79151234	     -0.72688067	      0.99512853	      0.30834355	     22.66608599	     -2.41215694	     -5.22995738	     -9.92637008	     -6.57883204	    -10.07470680	     -7.08846747	    -14.57537107	      3.00810268	    -11.50840063	    -15.03377137	     11.75258239	     -2.82404977	     -6.67617599	    -13.50911604	     -2.80701225	      0.62253615
      0.56233333	      1.55346168	      2.83868127	      0.51314226	     -0.72072436	      0.99524140	      0.30937099	     22.42806214	     -2.12152302	     -4.98977171	    -10.33856480	     -7.08740231	    -10.48835499	     -3.06515585	    -14.58773855	      2.77770578	    -11.81530051	    -16.00596427	     11.09460386	     -3.24572437	      1.78197595	    -13.60898213	     -2.66552326	      0.87088648
      0.56650000	      1.66178693	      2.71638089	      0.40584861	     -0.71460890	      0.99544522	      0.30993007	     22.20860554	     -1.94381396	     -4.99808960	    -10.74709856	     -7.54948316	    -10.63643205	     -3.09352313	    -14.48476106	      2.53981279	    -11.86684836	    -17.11162021	     10.50635590	     -3.47913096	      1.81602946	    -13.67724161	     -2.46838266	      0.96137677
      0.57066667	      1.85180216	      2.59792635	      0.21525315	     -0.70856253	      0.99579662	      0.31071808	     21.90921654	     -1.72616314	     -4.86319626	    -11.15399302	     -7.97956029	    -10.91958012	     -3.13538929	    -14.43809629	      2.31288914	    -12.01556726	    -18.25650552	      9.87425118	     -3.84222908	      1.98758490	    -13.85225297	     -2.32029780	      1.11480700
      0.57483333	      1.95368481	      2.41681189	     -0.10787429	     -0.70237379	      0.99598179	      0.31193137	     21.70254293	     -1.37100724	     -4.55017465	    -11.55144262	     -8.39084136	    -11.26493554	     -3.68396472	    -14.26448372	      1.99597239	    -12.47745495	    -19.49914022	      9.19049477	     -4.06143276	      7.41051862	    -13.89514434	     -2.14442732	      1.37450295
      0.57900000	      2.05911223	      2.30153011	     -0.22615127	     -0.69632516	      0.99634640	      0.31249467	     21.47774551	     -1.21204695	     -4.52846758	    -11.96150414	     -8.72414895	    -11.34428309	     -3.68257770	    -14.02481439	      1.75848817	    -12.52077361	    -20.80573010	      8.37052392	     -4.58423942	      7.47756895	    -13.97031269	     -1.97202886	      1.54420755
      0.58316667	      2.16188433	      2.16288759	     -0.41125870	     -0.69026162	      0.99670836	      0.31323909	     21.26386322	     -0.99942802	     -4.43184575	    -12.38813704	     -9.00592478	    -11.45255811	     -3.67752898	    -13.74551728	      1.48620942	    -12.70637651	    -22.18574221	      7.52557403	     -5.03219130	      7.62349329	    -14.04110573	     -1.78619932	      1.69106154
      0.58733333	      2.25598433	      2.00240658	     -0.60123738	     -0.68420239	      0.99709269	      0.31403688	     21.04508350	     -0.76042350	     -4.31780410	    -12.79596740	     -9.23421793	    -11.54234778	     -3.67240381	    -13.40550113	      1.17210609	    -12.93195795	    -23.65623870	      6.64789825	     -5.46343005	      7.82461639	    -14.09951463	     -1.59375621	      1.87181252
      0.59150000	      3.11014670	      0.95036870	     -3.39686811	     -0.67599595	      0.99793492	      0.32402517	     19.75155177	      1.91213557	     -0.66742186	    -12.62347183	    -10.08274663	    -14.18680462	     -3.87635549	    -14.50729634	     -0.71575686	    -19.63891083	    -23.87483053	      6.87344541	    -10.57106746	      7.82461639	    -14.73081008	     -1.50913047	      4.90323611
